<?xml version="1.0" encoding="UTF-8"?>
<svg id="Capa_1" xmlns="http://www.w3.org/2000/svg" viewBox="0 0 11.99 11.55">
  <defs>
    <style>
      .cls-1 {
        fill: #335a9b;
      }
    </style>
  </defs>
  <path class="cls-1" d="M10.34,8.28c-.2,1.15-1.08,1.91-2.24,1.95-1.51.05-3.02.06-4.53,0-1.35-.05-2.31-1.01-2.36-2.35-.06-1.51-.06-3.02,0-4.53.05-1.32,1.02-2.28,2.33-2.33,1.51-.06,3.02-.06,4.53,0,1.34.05,2.26,1.01,2.35,2.36.05.73,0,1.48,0,2.21.04,0,.06,1.81-.09,2.69ZM5.83,1.84s0,0,0,0c-.74,0-1.48-.04-2.21.01-.94.07-1.54.63-1.58,1.57-.05,1.46-.05,2.93,0,4.4.03.94.63,1.54,1.57,1.58,1.46.05,2.93.05,4.4,0,.94-.03,1.54-.63,1.58-1.57.05-1.48.05-2.95,0-4.43-.03-.89-.64-1.48-1.53-1.54-.74-.05-1.48-.01-2.21-.01Z"/>
  <path class="cls-1" d="M5.8,3.22c1.33,0,2.4,1.06,2.4,2.39,0,1.33-1.07,2.4-2.39,2.4-1.33,0-2.4-1.06-2.4-2.39,0-1.33,1.06-2.4,2.39-2.4ZM7.37,5.64c0-.86-.68-1.57-1.54-1.58-.86,0-1.57.69-1.58,1.54,0,.87.68,1.57,1.54,1.58.87,0,1.57-.69,1.58-1.54Z"/>
  <path class="cls-1" d="M8.87,3.12c0,.3-.25.54-.56.54-.32,0-.56-.25-.55-.57.01-.31.26-.54.56-.53.3,0,.55.27.54.56Z"/>
</svg>