<?xml version="1.0" encoding="UTF-8"?>
<svg id="Layer_1" xmlns="http://www.w3.org/2000/svg" version="1.1" viewBox="0 0 566.93 566.93">
  <!-- Generator: Adobe Illustrator 29.0.1, SVG Export Plug-In . SVG Version: 2.1.0 Build 192)  -->
  <defs>
    <style>
      .st0 {
        stroke-width: 1.58px;
      }

      .st0, .st1 {
        stroke: #000;
        stroke-miterlimit: 10;
      }

      .st1 {
        stroke-width: 4.98px;
      }
    </style>
  </defs>
  <g>
    <path d="M154.48-230.03c14.55-9.3,27.14-24.39,45.38-26.1,10.99-1.03,22.12,2,30.9,8.58l69.64,62.89,1.55-.77c15.8-17.72,27.98-38.02,55.03-36.39,23.03,1.38,42.65,26.96,60.98,38.95v-73.73c0-.65,3.19-5.6,4.11-6.37,6.95-5.82,17.36-2,19.67,6.54l.2,119.63c-2.95,37.54-32.52,67.41-70.03,70.7-55.73-2.57-114.58,3.46-169.94.05-38.05-2.34-68.59-32.84-71.48-70.74,2.86-55.58-3.7-114.82,0-169.98,2.51-37.39,33.38-68.23,70.74-70.74,38.39-2.58,79.63,2.01,118.32.01,13.72,2.61,14.2,20.48.68,23.93-38.28,2.21-79.57-2.78-117.5.02-22.07,1.63-48.25,22.73-48.25,46.06v77.47ZM200.69-232.09c-1.61.26-3.4,1.29-5.04,1.69l-41.05,30.81-.11,61.99c2.28,24.85,22.54,45.49,47.53,47.53,3.26.27,14.09.6,16.14-1.05l66.55-74.91-68.48-62.5c-4.56-3.2-10.02-4.44-15.54-3.56ZM249.54-90.05h122.39c22.96,0,44.23-25.75,46.02-47.54.38-4.63,1.31-14.08-2.63-16.81-16.78-11.44-32.39-28.16-49.07-39.25-11.15-7.42-21.63-4.87-29.89,5.15l-86.81,98.45Z"/>
    <path d="M393.81-377.31c4.06-.66,7.08.42,10.3,2.81,6.55,4.87,29.36,27.81,34.45,34.41,3.41,4.41,4.62,8.8,2,14.02l-61.26,61.51c-2.33,1.16-4.79,1.44-7.35,1.63-8.48.63-23.09.71-31.5,0-7.01-.6-12.13-4.49-12.99-11.71-.95-8.02-.81-25.43-.11-33.63.18-2.12.62-4.14,1.36-6.12l60.02-60.49c1.32-1.21,3.32-2.13,5.06-2.42ZM351.34-303.76v15.72l1.12,1.12h15.72l44.48-44.64-16.14-16.69-45.18,44.48Z"/>
    <path d="M241.11-333.15c18.66-3.13,34.1,13.3,27.73,31.47-9.56,27.25-51.2,17.46-46.07-13.13,1.33-7.95,10.39-17,18.34-18.34Z"/>
  </g>
  <path class="st1" d="M-319,143.36c1.53,1.05,3.63,3.18,3.63,5.14v9.97h100.9c-.11-4.39-.31-8.93,4.8-10,3.69-.77,16.3-.72,20.27-.27,3.73.42,5.31,1.96,5.74,5.74s.53,17.55-.26,20.89c-1.12,4.75-6.06,4.3-10.01,4.19v238.05c3.95-.11,8.89-.57,10.01,4.19.79,3.34.68,17.12.26,20.89-.4,3.55-2.13,5.32-5.73,5.75-3.82.46-16.72.47-20.29-.28-5.11-1.07-4.91-5.61-4.8-10h-100.9v9.97c0,1.96-2.35,4.99-4.57,5.1-9.91-.64-21.06.96-30.81.06-2.76-.25-5.71-2.01-5.71-5.16v-9.97h-100.9c.11,4.39.31,8.93-4.8,10-3.69.77-16.3.72-20.27.27-3.73-.42-5.31-1.96-5.74-5.74-.4-3.55-.56-17.93.13-21.02.98-4.37,6.6-4.29,10.14-4.05v-238.05c-3.54.23-9.17.32-10.14-4.05-.69-3.09-.53-17.47-.13-21.02.43-3.78,2.01-5.32,5.74-5.74,3.97-.45,16.58-.51,20.27.27,5.11,1.07,4.91,5.61,4.8,10h100.9v-9.97c0-1.96,2.09-4.08,3.63-5.14h33.83ZM-325.65,153.63h-20.54v19.94h20.54v-19.94ZM-467.63,158.47h-10.27v10.27h10.27v-10.27ZM-193.94,158.47h-10.27v10.27h10.27v-10.27ZM-389.69,168.74h-67.67c.74,7.94-2.11,11.36-10.27,10.27v65.86l5.94-11.89c11.7-21.35,28.46-39.47,49.09-52.41l22.91-11.83ZM-214.48,168.74h-67.06l15.12,7.54c23.8,13.2,43.22,32.83,56.28,56.7l5.94,11.89v-65.86c-8.16,1.09-11.01-2.33-10.27-10.27ZM-356.46,170.55c-74.75,10.67-125.56,83.21-107.74,157.58,12.16,50.75,55.98,90.38,107.74,97.38v-8.76c0-1.88,3.33-4.96,5.44-4.54-4.05-10.59-7.06-22.34-11.62-32.78-3.73-8.52-9.68-14.23-18.72-16.93-4.72-1.41-11.28-.4-12.36-6.25l21.88-109.56c-5.88-23.36,7.23-37.96,30.26-39.82,13.76-1.12,34.78,4.41,46.55-1.78,5.09-2.68,5.99-5.89,6.81-11.31l9.41-1.52c1.78,12-6.05,20.92-17.1,24.03-15.46,4.35-29.67-.39-45.17.75-14.58,1.07-25.22,9.08-21.27,24.94l87.97,70.92c2.69,4.97-2.54,8.05-4.87,11.89-5.71,9.39-6.07,19.09-1.71,29.13l19.04,51.03c46.36-30.36,68.15-87.5,53.17-141.36-13.54-48.67-56.5-86.34-106.64-93.05-.12,3.98,1.16,12-4.06,13.17-9.84-.84-23.03,1.58-32.46.09-1.85-.29-4.57-2.72-4.57-4.5v-8.76ZM-285.77,369.92c-2.87-8.94-8.43-19.14-8.51-28.68s3.86-17.46,8.25-25.1l-68.92-54.96,17.3,48.85c21.84-1.4,27.58,29.95,6.43,35.9-15.61,4.39-28.74-11.61-21.34-26.17,1.14-2.24,5.22-5.89,5.07-7.37l-16.53-45.17-1.5-1.82-16.88,86.35c21.31,4.23,29.87,21.28,35.01,40.53l61.62-22.36ZM-342.36,334.08c7.7,7.63,19.31-3.54,12.21-11.31-7.53-8.23-19.76,3.83-12.21,11.31ZM-467.63,351.2v65.86c8.16-1.09,11.01,2.33,10.27,10.27h67.67l-22.91-11.83c-20.67-12.94-37.34-31.06-49.09-52.41l-5.94-11.89ZM-204.21,417.06v-65.86l-5.94,11.89c-13.35,24.85-33.96,44.54-58.7,57.91l-13.3,6.33h67.67c-.74-7.94,2.11-11.36,10.27-10.27ZM-282.18,379.62l-61.59,21.73,3.71,10.79c1.06.68,16.45-.3,19.57.07,6.83.81,4.45,7.98,5.12,12.42.14.94-.37.92.91.91,2.35-.02,6.2-1.1,8.65-1.64,12.12-2.67,23.44-7.49,34.5-12.94l-10.87-31.34ZM-325.65,422.49h-20.54v19.94h20.54v-19.94ZM-467.63,427.33h-10.27v10.27h10.27v-10.27ZM-193.94,427.33h-10.27v10.27h10.27v-10.27Z"/>
  <g>
    <path class="st0" d="M460.02,159.79v210.6c-1.56,6.42-5.23,12.35-11.16,15.64-1.21.67-5.79,2.64-6.81,2.64h-110.66c0,14.59,6.11,30.37,22.46,32.08,8.71.91,18.41-2.07,25.67,4.6,9.79,8.98,4.53,26.07-8.7,27.66-48.88-.24-97.81.36-146.66-.3-14.93-4.62-15.57-26.05-.47-30.81,6.47-2.03,13.13-.47,19.66-1.15,16.35-1.71,22.46-17.49,22.46-32.08h-110.66c-7.9,0-18.63-12.36-17.99-20.47v-206.23c.84-10.65,7.99-18.89,18.6-20.5l286.29.02c6.3,1.21,12.03,5.05,15.15,10.7l2.82,7.59ZM438.58,335.08h9.77l.98-2.17v-170.3c-.37-5.32-4.16-10.24-9.78-10.4l-284.6.45c-4.01,1.41-6.49,5.23-7.05,9.35l-.03,170.91.98,2.17h9.77v-168.04c0-1.6,3.32-4.68,5.32-4.14h269.32c2-.54,5.32,2.54,5.32,4.14v168.04ZM427.86,173.66H169.34v160.79h258.52v-160.79ZM449.3,345.8H147.9v23.64c0,2.41,5.01,7.7,7.68,8.08l285.55.15c2.85-.24,8.16-5.67,8.16-8.23v-23.64ZM265.81,420.83h65.58c-7.83-8.94-9.96-20.59-11.44-32.07h-42.7c-1.47,11.43-3.6,23.13-11.44,32.07ZM228.45,431.7c-5.42.98-6.92,7.13-2.34,10.24h144.99c3.71-2.3,3.62-7.73-.45-9.61-2.63-1.22-7.57-.87-10.6-.8-40.87.99-82.03.99-122.9,0-2.58-.06-6.27-.27-8.7.18Z"/>
    <path class="st0" d="M210.78,184.52l152.48-.16c2.5-.18,3.9,1.15,4.98,3.21l.43,77.12c.82,2.42,18.41,4.1,20.64,8.36,3.1,5.95-5.06,9.73-8.1,13.79,0,.98,12.46,11.42,13.78,13.95.96,1.84,1.11,3.68,0,5.52-5.25,4.29-11,12.82-16.27,16.51-7.01,4.91-14.66-9.61-19.99-12.91-1.42-.25-7.09,7.42-9.22,8.3-9.69,4-9.5-14.89-12.56-19.91-.39-.64-.59-1.06-1.46-1.06l-122.36.04c-3.08.13-5.76-2.34-5.97-5.38l-.02-102.19c-.11-2.48,1.25-4.51,3.63-5.19ZM357.87,195.1h-139.98v15.76h139.98v-15.76ZM357.87,222.21h-139.98v64.31h115.39c-.91-6.93-8.76-22.52-7.55-28.68.65-3.31,4.83-4.14,7.72-3.33l24.42,7.41v-39.72ZM339.59,268.25l9.76,34.05c.79,1.01.63.42,1.27,0,2.4-1.58,3.28-4.5,7.11-4.93,6.01-.67,12.93,10.33,17.49,13.74l7.21-7.78c-6.26-8.19-21.66-14.61-8.16-24.68l-34.66-10.4Z"/>
    <path class="st0" d="M318.56,358c3.18,3.19.94,8.53-3.28,9.2-5.04.79-28.31.8-33.35,0-6.06-.96-6.54-9.92-.06-10.71s26.86-.81,33.47,0c1.19.15,2.39.67,3.22,1.51Z"/>
    <path class="st0" d="M280.75,274.35c-1.1,1.01-3.03,1.36-4.5,1.5-10.12.92-30.94.93-41.04,0-4.22-.39-6.1-1.64-6.6-6.01-.53-4.64-.54-16.18-.02-20.82.38-3.42,1.95-5.07,5.34-5.39,10.47-.99,32.44-.94,42.95.01,3.23.29,4.95,1.35,5.34,4.75.56,4.74.59,18.03.01,22.74-.13,1.07-.71,2.53-1.49,3.24ZM271.49,254.37h-32.16v10.72h32.16v-10.72Z"/>
  </g>
  <g>
    <path d="M1255.02,140.29l276.99-.22c16.46,1.49,28.96,14.02,30.45,30.45v151.93c-1.49,16.46-14.02,28.96-30.45,30.45h-275.11c-16.24-1.48-28.57-13.62-30.41-29.78v-153.25c1.79-15.47,13.12-27.34,28.53-29.56ZM1257.09,162.66c-3.66.73-6.78,3.27-7.74,6.96l-.51,150.73c.17,5.8,4.35,9.98,10.15,10.15h270.91c5.8-.17,9.98-4.35,10.15-10.15v-147.73c-.17-5.8-4.35-9.98-10.15-10.15l-272.82.2Z"/>
    <path d="M1310.32,364.96c17.89-1.94,35.29,6.12,44.35,21.72,1.06,1.83,4.55,10.64,5.23,10.87l192.38.09c13.55,1.92,13.54,20.49,0,22.4h-191.78c-.61,0-1.02.22-1.4.69-.61.73-2.99,7.72-4.18,9.82-19.58,34.67-71.32,27.4-82.22-10.19-2.19-1.46-31.28.52-37.31-.49-11.79-1.98-11.79-20.08,0-22.06,6.03-1.01,35.12.97,37.31-.49,5.05-16.69,19.94-30.45,37.62-32.37ZM1312.4,386.64c-27.36,3.97-23.57,47.16,6.03,44.52,29.25-2.61,24.83-49-6.03-44.52Z"/>
    <path d="M1365.61,190.64c3.04-.3,5.26.84,7.78,2.36l57.1,45.09c4.74,4.56,4.81,11.66.38,16.47l-56.77,45.42c-7.35,5.39-17.09,1.42-18.19-7.62l.02-92.44c.56-4.68,5.05-8.83,9.67-9.28ZM1377.66,267.47l26.59-21.34-26.59-20.65v41.99Z"/>
  </g>
</svg>