<?xml version="1.0" encoding="UTF-8"?>
<svg id="Capa_1" xmlns="http://www.w3.org/2000/svg" viewBox="0 0 11.99 11.55">
  <defs>
    <style>
      .cls-1 {
        fill: #335a9b;
        stroke: #bad1ee;
        stroke-miterlimit: 10;
        stroke-width: .25px;
      }
    </style>
  </defs>
  <path class="cls-1" d="M6.39.14C3.36.14.9,2.6.9,5.62c0,.97.25,1.91.73,2.74l-.75,2.76,2.87-.68c.8.44,1.7.66,2.62.66h0c3.03,0,5.48-2.46,5.48-5.48,0-1.47-.57-2.84-1.6-3.88C9.22.7,7.85.12,6.38.12h0ZM6.38,1.23c1.17,0,2.27.46,3.1,1.28s1.28,1.93,1.28,3.1c0,2.42-1.97,4.39-4.39,4.39-.73,0-1.45-.19-2.1-.53l-.37-.2-.41.1-1.08.25.26-.98.12-.44-.23-.4c-.38-.66-.59-1.42-.59-2.19C2,3.2,3.97,1.23,6.39,1.23h0ZM4.45,3.08c-.09,0-.24.03-.37.17-.13.14-.48.47-.48,1.14s.49,1.33.56,1.42c.07.09.95,1.52,2.34,2.07,1.16.46,1.39.37,1.64.34.25-.02.81-.33.93-.65.12-.32.12-.59.08-.65-.03-.05-.13-.09-.26-.16s-.81-.4-.94-.44-.22-.07-.31.07c-.09.14-.35.44-.43.54-.08.09-.16.1-.3.03-.14-.07-.58-.21-1.1-.68-.41-.36-.68-.81-.76-.95-.08-.14,0-.21.06-.28.06-.06.14-.16.2-.24s.09-.14.14-.23.02-.17-.01-.24c-.03-.07-.3-.75-.42-1.02-.1-.23-.21-.23-.31-.24h-.26.01Z"/>
</svg>